<?xml version="1.0" encoding="UTF-8" standalone="no"?>
<svg
   xmlns:dc="http://purl.org/dc/elements/1.1/"
   xmlns:cc="http://creativecommons.org/ns#"
   xmlns:rdf="http://www.w3.org/1999/02/22-rdf-syntax-ns#"
   xmlns:svg="http://www.w3.org/2000/svg"
   xmlns="http://www.w3.org/2000/svg"
   xmlns:sodipodi="http://sodipodi.sourceforge.net/DTD/sodipodi-0.dtd"
   xmlns:inkscape="http://www.inkscape.org/namespaces/inkscape"
   inkscape:version="1.0rc1 (09960d6f05, 2020-04-09)"
   sodipodi:docname="icon.svg"
   id="svg8"
   version="1.1"
   viewBox="0 0 169.333 169.333"
   height="640"
   width="640">
  <metadata
     id="metadata14">
    <rdf:RDF>
      <cc:Work
         rdf:about="">
        <dc:format>image/svg+xml</dc:format>
        <dc:type
           rdf:resource="http://purl.org/dc/dcmitype/StillImage" />
        <dc:title></dc:title>
      </cc:Work>
    </rdf:RDF>
  </metadata>
  <defs
     id="defs12" />
  <sodipodi:namedview
     inkscape:current-layer="svg8"
     inkscape:window-maximized="1"
     inkscape:window-y="0"
     inkscape:window-x="0"
     inkscape:cy="276.00085"
     inkscape:cx="462.53401"
     inkscape:zoom="0.884375"
     showgrid="false"
     id="namedview10"
     inkscape:window-height="1016"
     inkscape:window-width="1920"
     inkscape:pageshadow="2"
     inkscape:pageopacity="0"
     guidetolerance="10"
     gridtolerance="10"
     objecttolerance="10"
     borderopacity="1"
     bordercolor="#666666"
     pagecolor="#ffffff" />
  <path
     style="fill:#ffb380"
     id="path2"
     opacity=".55"
     d="M0 127h169.333v42.333H0z"
     fill="#8bb9d7" />
  <path
     inkscape:connector-curvature="0"
     style="fill:#d45500;stroke-width:0.999999"
     id="path4"
     d="m 159.74779,45.2 q 1.803,2.002 0.7,4.406 l -54.092,115.9 q -1.303,2.504 -4.208,2.504 -0.4,0 -1.402,-0.2 -1.702992,-0.5 -2.553984,-1.903 -0.849992,-1.403 -0.449996,-3.005 l 19.73798,-80.94 -40.669948,10.117 q -0.4,0.1 -1.202,0.1 -1.804,0 -3.106,-1.106 -1.804,-1.503 -1.303,-3.907 l 20.132,-82.636 q 0.4,-1.402 1.6,-2.303 1.203996,-0.902 2.805984,-0.902 h 32.856964 q 1.903,0 3.205,1.252 1.303,1.252 1.303,2.955 0,0.802 -0.5,1.803 l -17.13,46.38 39.67,-9.817 q 0.8,-0.2 1.2,-0.2 1.908,0 3.41,1.503 z"
     fill="#3872d2" />
  <path
     sodipodi:nodetypes="cccccccccccccccccccccccccccccccssccccsscsccscc"
     inkscape:connector-curvature="0"
     id="path6"
     d="m 27.11051,160.708 h 5.785 V 136.26 h -5.785 v 9.384 h -5.928 v -9.384 h -5.785 v 24.448 h 5.786 v -10.3 h 5.93 z m 21.047,-20.003 h 6.56 l 0.566,-4.445 h -19.791 v 4.445 h 6.88 v 20.003 h 5.785 z m 21.153,0 h 6.56 l 0.566,-4.445 h -19.79 v 4.445 h 6.878 v 20.003 h 5.786 z m 28.031964,3.528 c 0,-5.362 -3.774972,-7.973 -10.442964,-7.973 h -7.69 v 24.448 h 5.785 v -8.15 h 2.682 c 5.749992,0 9.665964,-2.645 9.665964,-8.325 z m -5.926964,0 c 0,2.893 -1.552,4.163 -4.128,4.163 h -2.293 v -8.008 h 2.01 c 2.93,0 4.41,1.235 4.41,3.845 z"
     fill="#3c3c3c" />
  <g
     transform="translate(-8.0004716,-1.88061)"
     id="g862">
    <path
       sodipodi:nodetypes="ssccccsscsccscc"
       inkscape:connector-curvature="0"
       id="path6-2"
       d="m 160.90541,146.11361 c 0,-5.362 -3.775,-7.973 -10.443,-7.973 h -7.69 v 24.448 h 5.785 v -8.15 h 2.682 c 5.75,0 9.666,-2.645 9.666,-8.325 z m -5.927,0 c 0,2.893 -1.552,4.163 -4.128,4.163 h -2.293 v -8.008 h 2.01 c 2.93,0 4.41,1.235 4.41,3.845 z"
       fill="#3c3c3c"
       style="stroke-width:1" />
    <rect
       style="fill:#3c3c3c;fill-opacity:1;stroke:none;stroke-width:0.321624;stroke-opacity:0.399235"
       id="rect858"
       width="5.7860003"
       height="24.37244"
       x="131.84991"
       y="138.21617" />
  </g>
</svg>
